<?xml version="1.0" standalone="no"?>
<!DOCTYPE svg PUBLIC "-//W3C//DTD SVG 20010904//EN"
 "http://www.w3.org/TR/2001/REC-SVG-20010904/DTD/svg10.dtd">
<svg version="1.0" xmlns="http://www.w3.org/2000/svg"
 width="256.000000pt" height="256.000000pt" viewBox="0 0 256.000000 256.000000"
 preserveAspectRatio="xMidYMid meet">
<metadata>
Created by potrace 1.14, written by Peter Selinger 2001-2017
</metadata>
<g transform="translate(0.000000,256.000000) scale(0.100000,-0.100000)"
fill="#000000" stroke="none">
<path d="M0 1280 l0 -1280 1280 0 1280 0 0 1280 0 1280 -1280 0 -1280 0 0
-1280z m879 782 c68 -34 76 -56 78 -223 2 -142 4 -151 24 -168 l22 -18 -22
-32 c-22 -31 -24 -31 -42 -15 -18 16 -21 16 -61 -2 -62 -28 -227 -27 -282 2
-66 34 -80 74 -79 225 1 157 14 192 83 227 59 29 225 32 279 4z m832 -168 c5
-215 4 -214 99 -214 91 0 89 -3 92 210 l3 185 58 3 57 3 0 -193 c0 -212 -6
-241 -63 -282 -25 -18 -43 -21 -140 -21 -88 0 -120 4 -149 18 -62 31 -68 57
-68 281 l0 196 54 0 54 0 3 -186z m-911 -1124 l0 -251 -57 3 -58 3 -3 248 -2
247 60 0 60 0 0 -250z m1210 201 c0 -49 -2 -52 -122 -193 l-121 -143 121 -3
122 -3 0 -54 0 -55 -200 0 -200 0 0 55 0 55 120 143 121 142 -116 3 -115 3 0
49 0 50 195 0 195 0 0 -49z"/>
<path d="M690 1981 c-51 -9 -61 -36 -58 -159 3 -95 5 -105 27 -123 16 -13 39
-19 75 -19 78 0 86 12 32 46 -25 16 -46 34 -46 39 1 6 10 21 21 34 22 27 19
27 87 -17 l22 -14 0 63 c0 63 -14 134 -28 142 -15 9 -99 14 -132 8z"/>
</g>
</svg>
